HIERARCHY
ROOT joint_Root
{
  OFFSET 0 0 0
  CHANNELS 6 Xposition Yposition Zposition Zrotation Xrotation Yrotation
  JOINT Hips
  {
    OFFSET 1.68551 92.9464 -0.722065
    CHANNELS 6 Xposition Yposition Zposition Zrotation Xrotation Yrotation
    JOINT Spine
    {
      OFFSET 15.7357 0 0
      CHANNELS 6 Xposition Yposition Zposition Zrotation Xrotation Yrotation
      JOINT Chest
      {
        OFFSET 8.98455 -0.406207 0
        CHANNELS 6 Xposition Yposition Zposition Zrotation Xrotation Yrotation
        JOINT Neck
        {
          OFFSET 16.3773 0 0
          CHANNELS 6 Xposition Yposition Zposition Zrotation Xrotation Yrotation
          JOINT Head
          {
            OFFSET 6.45672 0 0
            CHANNELS 6 Xposition Yposition Zposition Zrotation Xrotation Yrotation
            End Site
            {
              OFFSET 0 0 0
            }
          }
        }
        JOINT Shoulder_L
        {
          OFFSET 12.9942 -0.242716 4.98039
          CHANNELS 6 Xposition Yposition Zposition Zrotation Xrotation Yrotation
          JOINT UpperArm_L
          {
            OFFSET 5.34809 0 0
            CHANNELS 6 Xposition Yposition Zposition Zrotation Xrotation Yrotation
            JOINT LowerArm_L
            {
              OFFSET 24.3286 1.87007e-05 0
              CHANNELS 6 Xposition Yposition Zposition Zrotation Xrotation Yrotation
              JOINT Hand_L
              {
                OFFSET 22.2916 0 0
                CHANNELS 6 Xposition Yposition Zposition Zrotation Xrotation Yrotation
                End Site
                {
                  OFFSET 0 0 0
                }
              }
            }
          }
        }
        JOINT Shoulder_R
        {
          OFFSET 12.9945 -0.242716 -4.98039
          CHANNELS 6 Xposition Yposition Zposition Zrotation Xrotation Yrotation
          JOINT UpperArm_R
          {
            OFFSET -5.34813 0 0
            CHANNELS 6 Xposition Yposition Zposition Zrotation Xrotation Yrotation
            JOINT LowerArm_R
            {
              OFFSET -24.3289 0.000322201 0
              CHANNELS 6 Xposition Yposition Zposition Zrotation Xrotation Yrotation
              JOINT Hand_R
              {
                OFFSET -22.2915 -0.000108084 0
                CHANNELS 6 Xposition Yposition Zposition Zrotation Xrotation Yrotation
                End Site
                {
                  OFFSET 0 0 0
                }
              }
            }
          }
        }
      }
    }
    JOINT UpperLeg_L
    {
      OFFSET -2.19248 -6.46944 0
      CHANNELS 6 Xposition Yposition Zposition Zrotation Xrotation Yrotation
      JOINT LowerLeg_L
      {
        OFFSET 39.0811 0 -1.23785e-05
        CHANNELS 6 Xposition Yposition Zposition Zrotation Xrotation Yrotation
        JOINT Foot_L
        {
          OFFSET 40.9854 0 -1.26872e-05
          CHANNELS 6 Xposition Yposition Zposition Zrotation Xrotation Yrotation
          JOINT Toes_L
          {
            OFFSET 11.7543 0 0
            CHANNELS 6 Xposition Yposition Zposition Zrotation Xrotation Yrotation
            End Site
            {
              OFFSET 0 0 0
            }
          }
        }
      }
    }
    JOINT UpperLeg_R
    {
      OFFSET -2.19251 6.46944 0
      CHANNELS 6 Xposition Yposition Zposition Zrotation Xrotation Yrotation
      JOINT LowerLeg_R
      {
        OFFSET -39.0811 -0.00228153 -0.0401928
        CHANNELS 6 Xposition Yposition Zposition Zrotation Xrotation Yrotation
        JOINT Foot_R
        {
          OFFSET -40.9854 0 0
          CHANNELS 6 Xposition Yposition Zposition Zrotation Xrotation Yrotation
          JOINT Toes_R
          {
            OFFSET -11.7543 0 0
            CHANNELS 6 Xposition Yposition Zposition Zrotation Xrotation Yrotation
            End Site
            {
              OFFSET 0 0 0
            }
          }
        }
      }
    }
  }
}
MOTION
Frames:	4
Frame Time:	0.0333333
0 0 0 0 0 -0 1.68551 92.9464 -0.722065 92.9502 -3.63796 1.60019 15.7357 5.1072e-06 -5.51765e-07 -95.9177 77.2081 94.2109 8.98455 -0.406207 -4.3199e-07 11.6507 0.992875 -0.472281 16.3773 -1.3905e-06 -6.99897e-07 20.0838 -0.555501 -1.39939 6.45672 -1.25837e-06 -1.02172e-07 4.97383 -0.746782 0.202046 12.9942 -0.242716 4.98039 -88.7742 2.16319 -94.9992 5.34809 -7.22636e-06 -6.2814e-07 -70.1332 16.923 2.37886 24.3286 1.87007e-05 4.90208e-06 -7.96423 0.924402 -123.676 22.2916 -9.88446e-07 4.63217e-06 -41.4789 -27.6604 -20.5355 12.9945 -0.242716 -4.98039 91.5633 8.36841 -92.9964 -5.34813 -1.25947e-06 -3.79883e-06 -59.7438 18.6561 -5.45201 -24.3289 0.000322201 -8.65921e-06 1.29574 6.74259 -126.138 -22.2915 -0.000108084 -4.47941e-06 -18.5822 -22.3038 -19.6447 -2.19248 -6.46944 -1.22534e-07 175.38 8.18356 -4.61528 39.0811 -6.73843e-06 -1.23785e-05 -1.51447 -6.5721 17.1288 40.9854 -6.48686e-06 -1.26872e-05 1.40453 -6.84292 -60.6729 11.7543 -2.30145e-07 3.05095e-06 -2.07406e-16 0 -16.5775 -2.19251 6.46944 -1.45247e-06 -179.987 -2.95116 172.026 -39.0811 -0.00228153 -0.0401928 3.49833 4.39555 22.3317 -40.9854 7.72618e-06 5.99936e-06 -1.72643 0.710564 -63.303 -11.7543 -5.6619e-06 -5.58687e-06 9.47929e-16 3.97569e-16 -16.5738 
0 0 0 0 0 -0 1.68425 92.9503 -0.729307 92.9599 -3.62362 1.58225 15.7357 -2.35556e-06 1.0288e-07 -95.936 77.2215 94.2216 8.98454 -0.406208 7.42755e-08 11.6595 0.989405 -0.448806 16.3773 -9.35759e-06 -3.48291e-06 20.1269 -0.555425 -1.41164 6.45673 1.04553e-05 -6.1656e-07 4.98115 -0.746819 0.206761 12.9942 -0.242714 4.98039 -88.7693 2.20399 -95.0053 5.34808 -1.16097e-05 6.8293e-07 -70.1045 16.9131 2.38143 24.3286 -8.60203e-07 -3.11367e-06 -7.96759 0.91888 -123.674 22.2916 4.27967e-06 8.07787e-06 -41.4863 -27.6705 -20.5388 12.9945 -0.242714 -4.9804 91.562 8.36726 -92.989 -5.34813 2.76836e-06 -3.87957e-06 -59.7477 18.6553 -5.4509 -24.3289 0.000306806 -2.12485e-05 1.29879 6.73808 -126.13 -22.2915 -0.000107728 -1.52359e-05 -18.5949 -22.293 -19.6284 -2.19248 -6.46944 -1.33103e-07 175.376 8.18045 -4.62403 39.081 9.13301e-06 3.34512e-05 -1.52042 -6.56094 17.0981 40.9854 -2.38093e-06 -1.0009e-05 1.40963 -6.83543 -60.651 11.7543 -3.8359e-07 4.10128e-06 0 0 -16.5775 -2.1925 6.46944 -1.30115e-06 -179.998 -2.97013 172.113 -39.081 -0.00624193 -0.109703 3.50517 4.36989 22.2156 -40.9854 1.29834e-06 -6.41485e-06 -1.72568 0.695375 -63.2863 -11.7543 -3.87929e-06 -5.6905e-06 7.1127e-16 -3.97569e-16 -16.5779 
0 0 0 0 0 -0 1.6817 92.9489 -0.738495 92.9637 -3.60638 1.56296 15.7357 4.61428e-06 -9.23293e-08 -95.9406 77.2324 94.2278 8.98454 -0.406209 -4.48885e-07 11.6682 0.985782 -0.430785 16.3773 -3.20838e-06 -4.96017e-06 20.164 -0.555266 -1.41952 6.45672 1.76779e-05 1.59869e-06 4.99019 -0.747813 0.215936 12.9942 -0.242715 4.98039 -88.7658 2.23739 -95.0047 5.34809 -4.24479e-07 -7.44329e-08 -70.0818 16.9033 2.38767 24.3286 2.09087e-05 1.31968e-05 -7.96879 0.9125 -123.668 22.2916 1.33487e-06 1.14205e-05 -41.4976 -27.6869 -20.5432 12.9945 -0.242715 -4.98039 91.562 8.36731 -92.9887 -5.34813 6.20421e-06 -3.43874e-06 -59.7496 18.6513 -5.44159 -24.3289 0.00036129 1.48134e-05 1.30156 6.73402 -126.121 -22.2915 -0.000104466 -1.63548e-05 -18.6057 -22.2941 -19.607 -2.19248 -6.46945 8.58063e-08 175.375 8.18657 -4.65434 39.0811 0.000103617 0.000509408 -1.5155 -6.55289 17.1069 40.9854 -1.91141e-06 -1.86736e-07 1.40613 -6.82989 -60.647 11.7543 -5.47057e-07 1.38502e-06 5.91752e-17 1.98785e-16 -16.5775 -2.19251 6.46945 -1.57373e-06 179.998 -2.95782 172.036 -39.081 -0.0044828 -0.0791563 3.50133 4.37344 22.2761 -40.9854 -1.58301e-06 -9.12984e-07 -1.7262 0.690724 -63.2916 -11.7543 -5.09034e-06 -5.14258e-06 2.96475e-16 -3.97569e-16 -16.5747 
0 0 0 0 0 -0 1.67823 92.9551 -0.750356 92.9632 -3.58722 1.54876 15.7357 3.97925e-06 -2.68145e-06 -95.9292 77.2503 94.2249 8.98454 -0.406206 -1.93359e-07 11.6733 0.981215 -0.419508 16.3773 -1.25328e-06 -1.05921e-06 20.193 -0.555692 -1.4205 6.45672 5.51741e-06 7.81994e-07 5.00377 -0.749483 0.224183 12.9942 -0.242716 4.98039 -88.7647 2.25624 -94.9957 5.34808 -3.04153e-06 -1.89319e-07 -70.0724 16.8992 2.40015 24.3286 5.4491e-06 -6.75903e-06 -7.97204 0.91133 -123.663 22.2916 1.27991e-08 1.03391e-05 -41.5077 -27.6924 -20.5423 12.9945 -0.242716 -4.98039 91.5628 8.36687 -92.9941 -5.34812 -3.35859e-06 -4.07649e-06 -59.7506 18.6464 -5.42976 -24.329 0.000346682 1.2206e-05 1.3039 6.73059 -126.115 -22.2915 -0.00011136 -1.5768e-05 -18.6221 -22.3024 -19.593 -2.19248 -6.46944 -1.6607e-08 175.378 8.18691 -4.65625 39.0811 -3.03445e-05 -0.000134813 -1.51425 -6.5387 17.0656 40.9855 -4.57053e-06 -3.60187e-06 1.40652 -6.82198 -60.6156 11.7543 -9.31238e-07 1.08892e-06 -7.41152e-17 9.93923e-17 -16.5775 -2.19251 6.46945 -1.38137e-06 -179.995 -2.9778 172.072 -39.0809 -0.00577858 -0.101038 3.51965 4.34925 22.1963 -40.9854 3.12047e-06 -1.27653e-06 -1.73423 0.675087 -63.2565 -11.7543 -6.61155e-06 -4.82735e-06 -1.00773e-15 7.95139e-16 -16.5783 
